<svg xmlns="http://www.w3.org/2000/svg" viewBox="0 0 20.563 20.563">
  <defs>
    <style>
      .cls-1 {
        fill: #fff;
        fill-rule: evenodd;
      }
    </style>
  </defs>
  <path id="Path_43" data-name="Path 43" class="cls-1" d="M10.281,1.828a31.525,31.525,0,0,1,4.113.114,5.3,5.3,0,0,1,1.942.343,4.012,4.012,0,0,1,1.942,1.942,5.3,5.3,0,0,1,.343,1.942c0,1.028.114,1.371.114,4.113a31.524,31.524,0,0,1-.114,4.113,5.3,5.3,0,0,1-.343,1.942,4.012,4.012,0,0,1-1.942,1.942,5.3,5.3,0,0,1-1.942.343c-1.028,0-1.371.114-4.113.114a31.524,31.524,0,0,1-4.113-.114,5.3,5.3,0,0,1-1.942-.343,4.012,4.012,0,0,1-1.942-1.942,5.3,5.3,0,0,1-.343-1.942c0-1.028-.114-1.371-.114-4.113a31.524,31.524,0,0,1,.114-4.113,5.3,5.3,0,0,1,.343-1.942,4.1,4.1,0,0,1,.8-1.142,1.931,1.931,0,0,1,1.142-.8,5.3,5.3,0,0,1,1.942-.343,31.524,31.524,0,0,1,4.113-.114m0-1.828A33.754,33.754,0,0,0,6.055.114,7.053,7.053,0,0,0,3.541.571,4.472,4.472,0,0,0,1.714,1.714,4.472,4.472,0,0,0,.571,3.541,5.2,5.2,0,0,0,.114,6.055,33.754,33.754,0,0,0,0,10.281a33.754,33.754,0,0,0,.114,4.227,7.052,7.052,0,0,0,.457,2.513,4.472,4.472,0,0,0,1.142,1.828,4.472,4.472,0,0,0,1.828,1.142,7.052,7.052,0,0,0,2.513.457,33.753,33.753,0,0,0,4.227.114,33.753,33.753,0,0,0,4.227-.114,7.053,7.053,0,0,0,2.513-.457,4.793,4.793,0,0,0,2.97-2.97,7.052,7.052,0,0,0,.457-2.513c0-1.142.114-1.485.114-4.227a33.753,33.753,0,0,0-.114-4.227,7.053,7.053,0,0,0-.457-2.513,4.472,4.472,0,0,0-1.142-1.828A4.472,4.472,0,0,0,17.021.571,7.053,7.053,0,0,0,14.508.114,33.754,33.754,0,0,0,10.281,0m0,5.026a5.17,5.17,0,0,0-5.255,5.255,5.255,5.255,0,1,0,5.255-5.255m0,8.682a3.366,3.366,0,0,1-3.427-3.427,3.366,3.366,0,0,1,3.427-3.427,3.366,3.366,0,0,1,3.427,3.427,3.366,3.366,0,0,1-3.427,3.427M15.765,3.541A1.257,1.257,0,1,0,17.021,4.8a1.268,1.268,0,0,0-1.257-1.257"/>
</svg>
