<svg xmlns="http://www.w3.org/2000/svg" viewBox="0 0 22.558 18.297">
  <defs>
    <style>
      .cls-1 {
        fill: #fff;
        fill-rule: evenodd;
      }
    </style>
  </defs>
  <path id="Path_42" data-name="Path 42" class="cls-1" d="M45.143,20.3A13.042,13.042,0,0,0,58.3,7.138V6.512A10.186,10.186,0,0,0,60.558,4.13a10.4,10.4,0,0,1-2.632.752,4.876,4.876,0,0,0,2.005-2.506A11.5,11.5,0,0,1,57.049,3.5,4.476,4.476,0,0,0,53.665,2a4.708,4.708,0,0,0-4.637,4.637,2.443,2.443,0,0,0,.125,1,12.957,12.957,0,0,1-9.524-4.887A4.8,4.8,0,0,0,39,5.133a4.979,4.979,0,0,0,2.005,3.885,4.225,4.225,0,0,1-2.13-.627h0a4.58,4.58,0,0,0,3.76,4.512,3.863,3.863,0,0,1-1.253.125,2.133,2.133,0,0,1-.877-.125,4.748,4.748,0,0,0,4.386,3.258,9.462,9.462,0,0,1-5.765,2.005A3.47,3.47,0,0,1,38,18.041,11.829,11.829,0,0,0,45.143,20.3" transform="translate(-38 -2)"/>
</svg>
